<?xml version="1.0" encoding="utf-8"?>
<!-- Generator: Adobe Illustrator 21.1.0, SVG Export Plug-In . SVG Version: 6.00 Build 0)  -->
<svg version="1.1" id="Layer_1" xmlns="http://www.w3.org/2000/svg" xmlns:xlink="http://www.w3.org/1999/xlink" x="0px" y="0px"
	 viewBox="0 0 64 64" style="enable-background:new 0 0 64 64;" xml:space="preserve">
<style type="text/css">
	.st0{fill:#BC3E42;}
	.st1{fill:#165DA0;}
	.st2{fill:#FFFFFF;}
</style>
<circle class="st0" cx="32" cy="32" r="21"/>
<g>
	<path class="st1" d="M18.8,40.3c-1.2,0-2.1-0.4-2.7-1.2c-2.1-2.8-1.2-9.1-0.7-11.9l10.4,10.4C22.9,39.3,20.6,40.3,18.8,40.3
		C18.8,40.3,18.8,40.3,18.8,40.3z"/>
	<path class="st2" d="M15.9,28.7l8.7,8.7c-2.9,1.7-4.7,2.1-5.8,2.1c-0.9,0-1.6-0.3-2.1-0.9C15.2,36.7,15.3,32.2,15.9,28.7 M15,25.6
		c0,0-3.8,15.4,3.8,15.4c1.9,0,4.6-1,8.2-3.4L15,25.6L15,25.6z"/>
</g>
<g>
	<path class="st1" d="M45.2,40.3c-1.8,0-4.1-0.9-7-2.7l10.4-10.4c0.5,2.8,1.5,9.1-0.7,11.9C47.3,39.8,46.4,40.3,45.2,40.3z"/>
	<path class="st2" d="M48.1,28.7c0.5,3.2,0.8,7.9-0.8,9.9c-0.5,0.6-1.2,1-2.1,1c-1,0-2.9-0.4-5.8-2.1L48.1,28.7 M49,25.6l-12,12
		c3.6,2.4,6.2,3.4,8.2,3.4C52.9,41,49,25.6,49,25.6L49,25.6z"/>
</g>
<g>
</g>
<g>
</g>
<g>
</g>
<g>
</g>
<g>
</g>
<g>
</g>
</svg>
