<?xml version="1.0" encoding="utf-8"?>
<!-- Generator: Adobe Illustrator 21.1.0, SVG Export Plug-In . SVG Version: 6.00 Build 0)  -->
<svg version="1.1" id="Layer_1" xmlns="http://www.w3.org/2000/svg" xmlns:xlink="http://www.w3.org/1999/xlink" x="0px" y="0px"
	 viewBox="0 0 64 64" style="enable-background:new 0 0 64 64;" xml:space="preserve">
<style type="text/css">
	.st0{fill:#165DA0;}
	.st1{fill:#BC3E42;}
	.st2{fill:none;}
	.st3{fill:#FFFFFF;}
</style>
<circle class="st0" cx="32" cy="32" r="32"/>
<circle class="st1" cx="32" cy="50" r="14"/>
<g>
	<rect y="12" class="st2" width="64" height="40"/>
	<path class="st3" d="M16.5,20c-0.4-0.4-0.6-0.9-0.6-1.5c0-0.4,0.1-0.9,0.3-1.3c0.2-0.4,0.4-0.8,0.8-1.1c0.3-0.3,0.7-0.5,1.2-0.7
		c-0.2-0.2-0.4-0.4-0.6-0.6s-0.2-0.5-0.2-0.8c0-0.4,0.1-0.8,0.3-1.2s0.5-0.7,0.9-1c0.4-0.3,0.8-0.4,1.3-0.4c0.5,0,0.9,0.1,1.2,0.4
		c0.3,0.3,0.5,0.6,0.5,1.1c0,0.4-0.1,0.6-0.3,0.9c-0.2,0.2-0.4,0.4-0.6,0.4c-0.2,0-0.4-0.1-0.6-0.3c0.1,0,0.3-0.2,0.4-0.4
		c0.1-0.2,0.2-0.4,0.2-0.6c0-0.2-0.1-0.4-0.2-0.5c-0.1-0.1-0.3-0.2-0.5-0.2c-0.2,0-0.4,0.1-0.6,0.2c-0.2,0.2-0.3,0.4-0.4,0.6
		C19,13.2,19,13.5,19,13.8c0,0.4,0.1,0.7,0.3,1c0.2,0.3,0.5,0.5,0.9,0.6c-0.4,0.1-0.8,0.3-1.1,0.6s-0.6,0.7-0.8,1.1
		c-0.2,0.4-0.3,0.8-0.3,1.2c0,0.4,0.1,0.7,0.3,0.9c0.2,0.2,0.5,0.3,0.9,0.3c0.4,0,0.8-0.1,1.3-0.3c0.4-0.2,0.8-0.5,1-0.9l0.3,0.1
		c-0.3,0.7-0.8,1.2-1.4,1.6c-0.6,0.4-1.3,0.6-2.1,0.6C17.4,20.6,16.9,20.4,16.5,20z"/>
	<path class="st3" d="M27.6,20.1c-0.2-0.3-0.3-0.6-0.3-1c0-0.2,0-0.4,0.1-0.6c0-0.2,0.1-0.4,0.1-0.6c0-0.2,0.1-0.3,0.1-0.4
		c0.1-0.3,0.1-0.6,0.2-0.8s0.1-0.5,0.1-0.7c0-0.4-0.1-0.6-0.4-0.6c-0.2,0-0.4,0.1-0.6,0.3s-0.3,0.5-0.4,0.8l-0.8,3.9h-1.7l0.9-4.1
		c0-0.1,0-0.2,0-0.3c0-0.4-0.1-0.5-0.4-0.5c-0.2,0-0.4,0.1-0.6,0.3s-0.3,0.5-0.4,0.8l-0.8,3.9h-1.7l1.3-6h1.7L23.8,15
		c0.4-0.5,0.9-0.7,1.5-0.7c0.7,0,1.1,0.3,1.2,1c0.4-0.7,1-1,1.7-1c0.4,0,0.7,0.1,1,0.3s0.4,0.6,0.4,1c0,0.2,0,0.5-0.1,0.8
		c-0.1,0.3-0.1,0.6-0.2,1C29.1,17.8,29,18,29,18.2c-0.1,0.2-0.1,0.4-0.1,0.6c0,0.2,0,0.3,0.1,0.4c0.1,0.1,0.2,0.1,0.4,0.1
		c0.2,0,0.4-0.1,0.6-0.3c0.1-0.2,0.3-0.4,0.4-0.8h0.5c-0.3,0.9-0.6,1.5-1,1.8c-0.4,0.3-0.8,0.4-1.2,0.4
		C28.2,20.5,27.8,20.3,27.6,20.1z"/>
	<path class="st3" d="M31.3,14H33l-0.2,0.9c0.4-0.3,0.9-0.5,1.4-0.5c0.4,0,0.8,0.1,1.1,0.4c0.3,0.3,0.4,0.8,0.4,1.5
		c0,0.6-0.1,1.3-0.3,1.9c-0.2,0.6-0.5,1.2-0.9,1.6c-0.4,0.5-1,0.7-1.7,0.7c-0.5,0-0.9-0.1-1-0.4L31.1,23l-1.8,0.4L31.3,14z
		 M33.4,18.9c0.3-0.4,0.4-0.8,0.6-1.3s0.2-1,0.2-1.4c0-0.7-0.2-1-0.6-1c-0.1,0-0.3,0.1-0.4,0.2c-0.1,0.1-0.3,0.2-0.4,0.4l-0.7,3.4
		c0.1,0.2,0.2,0.3,0.5,0.3C32.8,19.4,33.1,19.2,33.4,18.9z"/>
	<path class="st3" d="M36.3,20.1c-0.2-0.2-0.4-0.6-0.4-1.1c0-0.2,0-0.5,0.1-0.8l0.8-3.9h1.7l-0.9,4.1c0,0.1,0,0.2,0,0.4
		c0,0.2,0,0.3,0.1,0.3s0.2,0.1,0.4,0.1c0.2,0,0.4-0.1,0.6-0.3c0.2-0.2,0.3-0.4,0.4-0.8h0.5c-0.3,0.9-0.7,1.5-1.1,1.8
		c-0.5,0.3-0.9,0.5-1.4,0.5C36.8,20.5,36.5,20.4,36.3,20.1z M37.4,13.5c-0.2-0.2-0.3-0.4-0.3-0.7c0-0.3,0.1-0.5,0.3-0.7
		c0.2-0.2,0.4-0.3,0.7-0.3s0.5,0.1,0.7,0.3c0.2,0.2,0.3,0.4,0.3,0.7c0,0.3-0.1,0.5-0.3,0.7c-0.2,0.2-0.4,0.3-0.7,0.3
		S37.5,13.7,37.4,13.5z"/>
	<path class="st3" d="M40,14.4h1.7l-0.2,0.7c0.3-0.2,0.5-0.4,0.7-0.6s0.5-0.2,0.7-0.2s0.5,0.1,0.6,0.3c0.1,0.2,0.2,0.4,0.2,0.6
		c0,0.2-0.1,0.4-0.2,0.6c-0.2,0.2-0.4,0.3-0.6,0.3c-0.2,0-0.3,0-0.4-0.1c-0.1-0.1-0.1-0.2-0.1-0.4c0-0.1,0-0.2-0.1-0.2
		c0,0-0.1-0.1-0.1-0.1c-0.2,0-0.3,0-0.4,0.1c-0.1,0.1-0.3,0.2-0.4,0.4l-1,4.6h-1.7L40,14.4z"/>
	<path class="st3" d="M44.1,20c-0.3-0.3-0.5-0.8-0.5-1.4c0-0.6,0.1-1.2,0.3-1.8c0.2-0.7,0.6-1.2,1.1-1.7s1.1-0.7,1.9-0.7
		c0.9,0,1.3,0.4,1.3,1.2c0,0.4-0.1,0.9-0.4,1.2c-0.3,0.4-0.6,0.7-1,0.9c-0.4,0.2-0.9,0.4-1.4,0.4c0,0.2,0,0.3,0,0.4
		c0,0.7,0.2,1,0.7,1c0.2,0,0.5-0.1,0.7-0.2c0.3-0.1,0.5-0.3,0.7-0.5c-0.2,1.2-0.9,1.8-2.1,1.8C44.8,20.5,44.4,20.3,44.1,20z
		 M46.3,17.1c0.3-0.2,0.5-0.4,0.6-0.7c0.2-0.3,0.2-0.6,0.2-0.9s-0.1-0.5-0.3-0.5c-0.3,0-0.6,0.3-0.8,0.8c-0.3,0.5-0.5,1.1-0.6,1.7
		C45.8,17.4,46,17.3,46.3,17.1z"/>
	<path class="st3" d="M11.8,32c-0.4-0.4-0.5-1-0.5-1.9c0-0.7,0.1-1.5,0.4-2.3s0.6-1.5,1.1-2.1s1.2-0.9,2-0.9c0.5,0,0.9,0.1,1.2,0.3
		c0.3,0.2,0.5,0.6,0.5,1c0,0.3-0.1,0.5-0.2,0.7c-0.1,0.2-0.3,0.2-0.5,0.2c-0.2,0-0.4-0.1-0.6-0.3c0.1-0.1,0.2-0.2,0.3-0.4
		c0.1-0.2,0.1-0.4,0.1-0.6c0-0.2,0-0.3-0.1-0.4s-0.3-0.2-0.5-0.2c-0.4,0-0.7,0.2-1,0.7c-0.3,0.5-0.6,1.1-0.8,1.8s-0.3,1.4-0.3,2.1
		c0,0.5,0.1,0.9,0.3,1.2c0.2,0.3,0.5,0.4,0.9,0.4c0.4,0,0.8-0.1,1.1-0.3c0.3-0.2,0.6-0.4,0.9-0.7l0.2,0.1c-0.2,0.4-0.4,0.8-0.7,1.1
		c-0.3,0.3-0.7,0.5-1.1,0.6c-0.4,0.1-0.7,0.2-1.1,0.2C12.7,32.6,12.2,32.4,11.8,32z"/>
	<path class="st3" d="M16.3,32.1c-0.3-0.3-0.4-0.7-0.4-1.2c0-0.5,0.1-1,0.3-1.5c0.2-0.6,0.5-1,0.9-1.4c0.4-0.4,0.9-0.6,1.6-0.6
		c0.9,0,1.3,0.5,1.3,1.6v0c0,0,0.1,0,0.1,0c0.2,0,0.5-0.1,0.8-0.2s0.5-0.3,0.8-0.4l0.1,0.3c-0.2,0.2-0.4,0.4-0.8,0.5s-0.6,0.2-1,0.3
		c-0.1,0.6-0.2,1.1-0.4,1.6c-0.2,0.5-0.5,0.8-0.9,1c-0.3,0.2-0.7,0.4-1.1,0.4C17,32.4,16.6,32.3,16.3,32.1z M18.4,31.3
		c0.2-0.2,0.3-0.4,0.4-0.8c0.1-0.3,0.2-0.7,0.3-1.1c-0.2,0-0.3-0.2-0.3-0.4c0-0.3,0.1-0.5,0.3-0.5c0-0.2,0-0.4-0.1-0.5
		c-0.1-0.1-0.1-0.1-0.3-0.1c-0.2,0-0.4,0.2-0.6,0.5c-0.2,0.3-0.4,0.7-0.5,1.1c-0.1,0.4-0.2,0.8-0.2,1.2c0,0.3,0,0.5,0.1,0.6
		c0.1,0.1,0.2,0.2,0.4,0.2C18.1,31.5,18.2,31.4,18.4,31.3z"/>
	<path class="st3" d="M20.7,32.2c-0.2-0.2-0.3-0.5-0.3-0.9c0-0.2,0-0.4,0.1-0.6l1.1-5l1.5-0.2l-1.1,5.4c0,0.1,0,0.2,0,0.3
		c0,0.1,0,0.2,0.1,0.3s0.2,0.1,0.3,0.1c0.2,0,0.4-0.1,0.5-0.2c0.2-0.2,0.3-0.4,0.4-0.6h0.4c-0.2,0.7-0.6,1.2-1,1.5
		c-0.4,0.3-0.8,0.4-1.1,0.4C21.1,32.5,20.9,32.4,20.7,32.2z"/>
	<path class="st3" d="M23.3,32.2C23.1,32,23,31.7,23,31.3c0-0.2,0-0.4,0.1-0.6l1.1-5l1.5-0.2l-1.1,5.4c0,0.1,0,0.2,0,0.3
		c0,0.1,0,0.2,0.1,0.3s0.2,0.1,0.3,0.1c0.2,0,0.4-0.1,0.5-0.2c0.2-0.2,0.3-0.4,0.4-0.6h0.4c-0.2,0.7-0.6,1.2-1,1.5
		c-0.4,0.3-0.8,0.4-1.1,0.4C23.8,32.5,23.5,32.4,23.3,32.2z"/>
	<path class="st3" d="M26.1,32.1c-0.3-0.3-0.4-0.7-0.4-1.2c0-0.5,0.1-1,0.3-1.5c0.2-0.6,0.5-1,0.9-1.4c0.4-0.4,0.9-0.6,1.6-0.6
		c0.7,0,1.1,0.3,1.1,1c0,0.4-0.1,0.7-0.3,1c-0.2,0.3-0.5,0.6-0.8,0.8c-0.4,0.2-0.7,0.3-1.1,0.3c0,0.2,0,0.3,0,0.4
		c0,0.3,0.1,0.5,0.2,0.7s0.3,0.2,0.6,0.2c0.4,0,0.7-0.1,0.9-0.3c0.3-0.2,0.5-0.4,0.8-0.8H30c-0.7,1.2-1.7,1.9-2.8,1.9
		C26.7,32.5,26.3,32.3,26.1,32.1z M27.9,29.6c0.2-0.2,0.4-0.4,0.5-0.6c0.1-0.2,0.2-0.5,0.2-0.8s-0.1-0.4-0.3-0.4
		c-0.2,0-0.5,0.2-0.7,0.6c-0.2,0.4-0.4,0.9-0.5,1.4C27.5,29.9,27.7,29.8,27.9,29.6z"/>
	<path class="st3" d="M29.9,32.1c-0.3-0.3-0.4-0.7-0.4-1.2c0-0.5,0.1-1,0.3-1.5c0.2-0.6,0.5-1,0.9-1.4c0.4-0.4,0.9-0.6,1.5-0.6
		c0.4,0,0.7,0.1,0.9,0.3s0.3,0.4,0.3,0.7c0,0.2,0,0.4-0.2,0.5C33,28.9,32.9,29,32.8,29c-0.1,0-0.2,0-0.3-0.1
		c0.1-0.2,0.1-0.4,0.1-0.6c0-0.1,0-0.2-0.1-0.3c0-0.1-0.1-0.1-0.2-0.1c-0.2,0-0.4,0.2-0.6,0.5s-0.4,0.7-0.5,1.2S31,30.4,31,30.8
		c0,0.3,0.1,0.5,0.2,0.7s0.3,0.2,0.6,0.2c0.4,0,0.7-0.1,0.9-0.3c0.3-0.2,0.5-0.4,0.8-0.8h0.3c-0.7,1.2-1.7,1.9-2.8,1.9
		C30.6,32.5,30.2,32.3,29.9,32.1z"/>
	<path class="st3" d="M33.7,32.2c-0.2-0.2-0.3-0.5-0.3-0.9c0-0.2,0-0.4,0.1-0.6l0.6-2.8h-0.3l0.1-0.4h0.3l0.3-1.4l1.5-0.2l-0.3,1.6
		h0.6l-0.1,0.4h-0.6l-0.6,3c0,0.1,0,0.2,0,0.3c0,0.1,0,0.2,0.1,0.3s0.2,0.1,0.3,0.1c0.2,0,0.4-0.1,0.5-0.2c0.2-0.2,0.3-0.4,0.4-0.6
		h0.4c-0.2,0.7-0.6,1.2-1,1.5c-0.4,0.3-0.8,0.4-1.1,0.4C34.1,32.5,33.9,32.4,33.7,32.2z"/>
	<path class="st3" d="M36.3,32.2c-0.2-0.2-0.3-0.5-0.3-0.9c0-0.2,0-0.4,0.1-0.6l0.7-3.2h1.4l-0.7,3.4c0,0.1,0,0.2,0,0.3
		c0,0.1,0,0.2,0.1,0.3s0.2,0.1,0.3,0.1c0.2,0,0.4-0.1,0.5-0.2c0.2-0.2,0.3-0.4,0.4-0.6h0.4c-0.2,0.7-0.6,1.2-1,1.5
		c-0.4,0.3-0.8,0.4-1.1,0.4C36.8,32.5,36.5,32.4,36.3,32.2z M37.2,26.6c-0.2-0.2-0.2-0.3-0.2-0.6c0-0.2,0.1-0.4,0.2-0.6
		s0.3-0.2,0.6-0.2s0.4,0.1,0.6,0.2c0.2,0.2,0.2,0.3,0.2,0.6c0,0.2-0.1,0.4-0.2,0.6c-0.2,0.2-0.3,0.2-0.6,0.2S37.4,26.8,37.2,26.6z"
		/>
	<path class="st3" d="M39.1,32.1c-0.2-0.2-0.4-0.5-0.4-0.9c0-0.2,0-0.4,0.1-0.6l1.1-5l1.5-0.2l-0.5,2.3c0.2-0.1,0.3-0.2,0.5-0.2
		s0.2-0.1,0.4-0.1c0.8,0,1.2,0.6,1.2,1.7c0,0.5-0.1,1-0.3,1.5c-0.2,0.5-0.5,1-0.9,1.3c-0.4,0.4-0.9,0.6-1.6,0.6
		C39.7,32.5,39.3,32.3,39.1,32.1z M41.3,31.1c0.2-0.3,0.3-0.6,0.4-1c0.1-0.4,0.2-0.8,0.2-1.1c0-0.3,0-0.5-0.1-0.7s-0.2-0.3-0.4-0.3
		c-0.1,0-0.2,0-0.3,0c-0.1,0-0.2,0.1-0.3,0.1l-0.6,2.5c0,0.1,0,0.2,0,0.2c0,0.3,0.2,0.5,0.5,0.5C40.9,31.5,41.1,31.4,41.3,31.1z"/>
	<path class="st3" d="M43.5,32.2c-0.2-0.2-0.3-0.5-0.3-0.9c0-0.2,0-0.4,0.1-0.6l1.1-5l1.5-0.2l-1.1,5.4c0,0.1,0,0.2,0,0.3
		c0,0.1,0,0.2,0.1,0.3s0.2,0.1,0.3,0.1c0.2,0,0.4-0.1,0.5-0.2c0.2-0.2,0.3-0.4,0.4-0.6h0.4c-0.2,0.7-0.6,1.2-1,1.5
		c-0.4,0.3-0.8,0.4-1.1,0.4C43.9,32.5,43.7,32.4,43.5,32.2z"/>
	<path class="st3" d="M46.2,32.1c-0.3-0.3-0.4-0.7-0.4-1.2c0-0.5,0.1-1,0.3-1.5c0.2-0.6,0.5-1,0.9-1.4c0.4-0.4,0.9-0.6,1.6-0.6
		c0.7,0,1.1,0.3,1.1,1c0,0.4-0.1,0.7-0.3,1c-0.2,0.3-0.5,0.6-0.8,0.8c-0.4,0.2-0.7,0.3-1.1,0.3c0,0.2,0,0.3,0,0.4
		c0,0.3,0.1,0.5,0.2,0.7s0.3,0.2,0.6,0.2c0.4,0,0.7-0.1,0.9-0.3c0.3-0.2,0.5-0.4,0.8-0.8h0.3c-0.7,1.2-1.7,1.9-2.8,1.9
		C46.9,32.5,46.5,32.3,46.2,32.1z M48.1,29.6c0.2-0.2,0.4-0.4,0.5-0.6c0.1-0.2,0.2-0.5,0.2-0.8s-0.1-0.4-0.3-0.4
		c-0.2,0-0.5,0.2-0.7,0.6c-0.2,0.4-0.4,0.9-0.5,1.4C47.6,29.9,47.8,29.8,48.1,29.6z"/>
	<path class="st3" d="M50.1,32.3c-0.2-0.1-0.4-0.3-0.5-0.5s-0.2-0.4-0.2-0.6c0-0.2,0.1-0.4,0.2-0.6s0.2-0.3,0.4-0.4
		c0.3-0.5,0.5-0.9,0.7-1.4s0.4-1,0.6-1.5l1.5-0.2c0,0.9,0.1,1.8,0.2,2.8c0,0.4,0,0.7,0,0.9c0,0.4-0.1,0.7-0.3,1
		c-0.2,0.3-0.5,0.4-0.8,0.6c-0.3,0.1-0.6,0.2-0.9,0.2C50.6,32.5,50.3,32.4,50.1,32.3z M51.2,31.4c0.2-0.1,0.3-0.4,0.3-0.7
		c0-0.2,0-0.5-0.1-0.8c-0.1-0.8-0.1-1.3-0.1-1.5c-0.2,0.5-0.4,1.2-0.8,1.9c0.2,0.1,0.2,0.2,0.2,0.4c0,0.1,0,0.2-0.1,0.3
		c-0.1,0.1-0.2,0.2-0.3,0.2c-0.1,0-0.2,0-0.3-0.1c0,0.2,0,0.4,0.1,0.5c0.1,0.1,0.3,0.2,0.5,0.2C50.8,31.7,51,31.6,51.2,31.4z"/>
</g>
<g>
	<path class="st0" d="M23.2,55.5c-0.8,0-1.4-0.3-1.8-0.8c-1.3-1.7-0.9-5.7-0.5-7.9l6.9,6.9C25.9,54.9,24.4,55.5,23.2,55.5L23.2,55.5
		z"/>
	<path class="st3" d="M21.3,47.8l5.8,5.8c-1.9,1.2-3.2,1.4-3.8,1.4c-0.6,0-1.1-0.2-1.4-0.6C20.8,53.1,20.9,50.2,21.3,47.8
		 M20.6,45.8c0,0-2.6,10.2,2.6,10.2c1.3,0,3-0.6,5.4-2.2L20.6,45.8L20.6,45.8z"/>
</g>
<g>
	<path class="st0" d="M40.8,55.5c-1.2,0-2.7-0.6-4.7-1.8l6.9-6.9c0.4,1.8,1,6.1-0.5,7.9C42.2,55.2,41.6,55.5,40.8,55.5z"/>
	<path class="st3" d="M42.7,47.8c0.3,2.2,0.5,5.2-0.5,6.6c-0.3,0.4-0.8,0.6-1.4,0.6c-0.7,0-1.9-0.3-3.8-1.4L42.7,47.8 M43.4,45.8
		l-8,8c2.4,1.6,4.2,2.2,5.4,2.2C45.9,56,43.4,45.8,43.4,45.8L43.4,45.8z"/>
</g>
<g>
</g>
<g>
</g>
<g>
</g>
<g>
</g>
<g>
</g>
<g>
</g>
</svg>
